<?xml version="1.0" encoding="utf-8"?>
<!-- Generator: Adobe Illustrator 26.1.0, SVG Export Plug-In . SVG Version: 6.00 Build 0)  -->
<svg version="1.1" id="Layer_1" xmlns="http://www.w3.org/2000/svg" xmlns:xlink="http://www.w3.org/1999/xlink" x="0px" y="0px"
	 viewBox="0 0 200 50" style="enable-background:new 0 0 200 50;" xml:space="preserve">
<style type="text/css">
	.st0{fill:url(#SVGID_1_);}
	.st1{fill:url(#SVGID_00000040576660221126439760000015829871881818440630_);}
	.st2{fill:#121B26;}
	.st3{fill:#101A25;}
	.st4{fill:url(#SVGID_00000122684085650643659690000011620156957530266503_);}
</style>
<g>
	<g>
		<linearGradient id="SVGID_1_" gradientUnits="userSpaceOnUse" x1="18.7871" y1="9.7323" x2="46.5531" y2="25.6897">
			<stop  offset="4.262232e-07" style="stop-color:#009EED"/>
			<stop  offset="1" style="stop-color:#003CC7"/>
		</linearGradient>
		<polygon class="st0" points="50.72,22.54 50.72,15.71 35.02,6.39 19.44,15.71 19.44,22.54 34.7,31.54 40.25,28.1 24.93,18.71 
			35.08,12.84 		"/>
		
			<linearGradient id="SVGID_00000183240461822264204850000008912974007567760063_" gradientUnits="userSpaceOnUse" x1="19.4425" y1="31.0319" x2="50.7191" y2="31.0319">
			<stop  offset="4.262232e-07" style="stop-color:#3B4957"/>
			<stop  offset="1" style="stop-color:#24303C"/>
		</linearGradient>
		<polygon style="fill:url(#SVGID_00000183240461822264204850000008912974007567760063_);" points="19.44,27.46 19.44,34.29 
			35.14,43.61 50.72,34.29 50.72,27.46 35.46,18.46 29.91,21.9 45.23,31.29 35.08,37.16 		"/>
	</g>
	<g>
		<g>
			<path class="st2" d="M63.9,17.03c1.39,0,2.71,0.13,3.95,0.4l-0.11,1.23c-1.24-0.06-2.49-0.09-3.76-0.09
				c-0.46,0-0.8,0.01-1.02,0.02c-0.23,0.01-0.47,0.05-0.73,0.12c-0.26,0.07-0.44,0.18-0.55,0.32c-0.11,0.15-0.2,0.34-0.27,0.59
				s-0.1,0.57-0.1,0.96c0,0.7,0.13,1.2,0.38,1.5c0.25,0.3,0.68,0.53,1.29,0.68l2.71,0.66c0.99,0.25,1.68,0.67,2.08,1.26
				c0.4,0.59,0.6,1.41,0.6,2.48c0,1.47-0.33,2.44-0.99,2.91c-0.66,0.47-1.82,0.71-3.47,0.71c-1.4,0-2.78-0.12-4.12-0.36l0.11-1.25
				c1.88,0.06,3.24,0.09,4.06,0.09c1.06-0.01,1.77-0.15,2.13-0.42s0.54-0.84,0.54-1.73c0-0.73-0.12-1.24-0.37-1.53
				c-0.25-0.28-0.68-0.5-1.3-0.65l-2.75-0.7c-0.95-0.23-1.62-0.64-2.02-1.23c-0.4-0.59-0.6-1.42-0.6-2.47
				c0-0.77,0.08-1.39,0.24-1.86c0.16-0.47,0.43-0.82,0.83-1.06c0.39-0.24,0.83-0.4,1.31-0.47C62.44,17.07,63.09,17.03,63.9,17.03z"
				/>
			<path class="st2" d="M73.18,21.19h2.98v1.29h-2.98v5.5c0,0.46,0.09,0.78,0.28,0.97c0.19,0.19,0.52,0.29,0.99,0.29h1.42l0.19,1.25
				c-0.58,0.16-1.28,0.25-2.11,0.25c-0.8,0-1.4-0.22-1.8-0.65c-0.4-0.44-0.61-1.07-0.61-1.89v-5.71h-1.71v-1.2l1.71-0.08v-2.79h1.63
				V21.19z"/>
			<path class="st2" d="M82.13,20.96c1.62,0,2.76,0.37,3.42,1.12c0.66,0.75,1,2.01,1,3.79c0,1.81-0.33,3.08-1,3.82
				s-1.81,1.11-3.42,1.11c-1.61,0-2.74-0.37-3.41-1.12c-0.66-0.75-1-2.02-1-3.81c0-1.78,0.33-3.05,1-3.79
				C79.39,21.33,80.52,20.96,82.13,20.96z M82.13,22.35c-1.02,0-1.73,0.25-2.12,0.75c-0.39,0.5-0.58,1.43-0.58,2.78
				c0,1.35,0.19,2.28,0.58,2.79c0.39,0.51,1.09,0.76,2.12,0.76c1.02,0,1.73-0.25,2.12-0.76s0.59-1.44,0.59-2.79
				c0-1.35-0.19-2.28-0.58-2.78C83.88,22.6,83.17,22.35,82.13,22.35z"/>
			<path class="st2" d="M93.12,20.96c1.23,0,2.24,0.15,3.04,0.44l-0.23,1.06c-0.83-0.08-1.68-0.11-2.54-0.11
				c-1.13,0-1.91,0.25-2.34,0.74c-0.44,0.49-0.65,1.42-0.65,2.77c0,1.35,0.22,2.28,0.65,2.79c0.44,0.51,1.22,0.76,2.34,0.76
				c1.04,0,1.96-0.06,2.77-0.19l0.17,1.1c-0.94,0.32-2.01,0.47-3.23,0.47c-1.62,0-2.76-0.37-3.43-1.11
				c-0.67-0.74-1.01-2.01-1.01-3.82c0-1.8,0.33-3.06,1.01-3.8C90.33,21.33,91.49,20.96,93.12,20.96z"/>
			<path class="st2" d="M100.18,17.09v5.98c0,0.63-0.03,1.16-0.1,1.59h1.23l2.98-3.47h1.9l-2.94,3.43c-0.25,0.3-0.47,0.52-0.66,0.65
				v0.04c0.2,0.16,0.42,0.41,0.66,0.74l3.24,4.52h-1.9l-3.26-4.71h-1.27c0.06,0.59,0.09,1.1,0.09,1.52v3.19h-1.63V17.09H100.18z"/>
		</g>
		<g>
			<path class="st3" d="M112.8,16.84c1.96,0,3.55,0.76,4.12,1.88c0.25,0.59,0.41,1.16,0.41,1.75c0,1.55-0.84,2.37-1.69,2.86
				c1.57,0.55,2.37,1.9,2.37,3.31c0,1.65-0.8,2.96-2.45,3.59c-0.61,0.24-1.29,0.33-2.04,0.33h-5.9V16.84H112.8z M111.05,22.29h1.2
				c0.75,0,1.16-0.22,1.39-0.47c0.24-0.27,0.27-0.61,0.27-0.84c0-0.55-0.27-0.94-0.78-1.16c-0.22-0.08-0.67-0.12-0.98-0.12h-1.1
				V22.29z M111.05,27.62h1.67c1.14,0,1.76-0.39,1.76-1.27c0-0.49-0.22-0.94-0.63-1.2c-0.33-0.14-0.73-0.22-1.16-0.22h-1.65V27.62z"
				/>
			<path class="st3" d="M125.56,30.56l-0.2-0.84c-0.65,0.65-1.63,1.08-2.78,1.08c-2.24,0-3.61-1.37-3.61-3.94v-6.41h3.47v5.98
				c0,1.06,0.33,1.65,1.18,1.65c0.69,0,1.16-0.33,1.49-0.59v-7.04h3.45v10.12H125.56z"/>
			<path class="st3" d="M133.49,21.48c0.47-0.57,1.24-1.18,2.39-1.18c0.47,0,0.96,0.06,1.27,0.22l-0.41,2.8
				c-0.39-0.1-0.76-0.16-1.1-0.16c-0.82,0-1.55,0.59-1.96,1.06v6.33h-3.43V20.44h3.04L133.49,21.48z"/>
			<path class="st3" d="M146.43,29.42c-0.41,0.47-1.16,0.8-1.94,1.04s-1.57,0.37-2.14,0.29c-1.45,0-2.69-0.39-3.59-1.29
				c-0.9-0.88-1.43-2.18-1.43-3.96c0-2.39,1.12-4.24,2.69-4.82c0.73-0.31,1.45-0.45,2.18-0.45c2.86,0,4.65,1.94,4.67,5.98h-6.2
				c0.08,1.24,0.78,1.9,2.18,1.9c1.16,0,1.84-0.47,2.57-1.1L146.43,29.42z M143.64,24.29c-0.06-1.04-0.63-1.76-1.43-1.76
				c-0.84,0-1.43,0.69-1.53,1.76H143.64z"/>
			<path class="st3" d="M148.31,21.31c0.31-0.18,0.71-0.39,1.25-0.57c1.16-0.41,2.02-0.51,2.61-0.51c2.49,0,4.1,1.25,4.1,3.94v6.39
				h-2.88l-0.27-0.78c-0.55,0.51-1.43,0.94-2.61,0.94c-0.88,0-1.63-0.27-2.2-0.82c-0.55-0.53-0.88-1.24-0.88-2.21
				c-0.02-1.06,0.47-1.84,1.16-2.37c0.65-0.55,1.49-0.78,2.16-0.84c0.39-0.06,1.08-0.16,2.16-0.22V23.9c0-0.75-0.41-1.12-1.25-1.12
				c-0.8,0-1.61,0.27-2.33,0.71L148.31,21.31z M152.9,26.03c-0.35,0.06-0.65,0.08-0.82,0.1c-0.18,0.02-0.31,0.04-0.37,0.06
				c-0.8,0.16-1.08,0.59-1.08,1.24c0,0.51,0.39,0.9,1.06,0.9c0.47,0,0.9-0.2,1.22-0.43V26.03z"/>
			<path class="st3" d="M164.45,30.56l-0.2-0.84c-0.65,0.65-1.63,1.08-2.78,1.08c-2.24,0-3.61-1.37-3.61-3.94v-6.41h3.47v5.98
				c0,1.06,0.33,1.65,1.18,1.65c0.69,0,1.16-0.33,1.49-0.59v-7.04h3.45v10.12H164.45z"/>
		</g>
		<g>
			
				<linearGradient id="SVGID_00000061434179078625063190000014299007091186123952_" gradientUnits="userSpaceOnUse" x1="165.6178" y1="17.3409" x2="181.4856" y2="29.5953">
				<stop  offset="4.262232e-07" style="stop-color:#009EED"/>
				<stop  offset="1" style="stop-color:#003CC7"/>
			</linearGradient>
			<path style="fill:url(#SVGID_00000061434179078625063190000014299007091186123952_);" d="M180.56,30.56h-3.61l-2.08-3.67
				l-2.1,3.67h-3.56l3.93-6.36l-3.67-5.98h3.58l1.87,3.28l1.85-3.28h3.53l-3.65,5.94L180.56,30.56z"/>
		</g>
	</g>
</g>
</svg>
