<?xml version="1.0" encoding="utf-8"?>
<!-- Generator: Adobe Illustrator 26.1.0, SVG Export Plug-In . SVG Version: 6.00 Build 0)  -->
<svg version="1.1" id="Layer_1" xmlns="http://www.w3.org/2000/svg" xmlns:xlink="http://www.w3.org/1999/xlink" x="0px" y="0px"
	 viewBox="0 0 200 50" style="enable-background:new 0 0 200 50;" xml:space="preserve">
<style type="text/css">
	.st0{display:none;}
	.st1{display:inline;}
	.st2{fill:url(#SVGID_1_);}
	.st3{fill:url(#SVGID_00000101083371484567816640000015965051115940145797_);}
	.st4{fill:#121B26;}
	.st5{fill:#101A25;}
	.st6{fill:url(#SVGID_00000130625359351735554050000017283302995442131351_);}
	.st7{fill:#747273;}
	.st8{fill:url(#SVGID_00000096048459036349063660000010241489486443876798_);}
	.st9{fill:url(#SVGID_00000047018041064896218750000007627631230335029426_);}
	.st10{opacity:0.49;fill:url(#SVGID_00000135686744111611346340000000711770127011456910_);}
	.st11{fill:#686465;}
</style>
<g class="st0">
	<g class="st1">
		
			<linearGradient id="SVGID_1_" gradientUnits="userSpaceOnUse" x1="18.7891" y1="42.2711" x2="46.5551" y2="26.3137" gradientTransform="matrix(1 0 0 -1 0 52)">
			<stop  offset="4.262232e-07" style="stop-color:#009EED"/>
			<stop  offset="1" style="stop-color:#003CC7"/>
		</linearGradient>
		<polygon class="st2" points="50.7,22.5 50.7,15.7 35,6.4 19.4,15.7 19.4,22.5 34.7,31.5 40.2,28.1 24.9,18.7 35.1,12.8 		"/>
		
			<linearGradient id="SVGID_00000090269433590244539520000000579897013198999429_" gradientUnits="userSpaceOnUse" x1="19.44" y1="20.965" x2="50.72" y2="20.965" gradientTransform="matrix(1 0 0 -1 0 52)">
			<stop  offset="4.262232e-07" style="stop-color:#3B4957"/>
			<stop  offset="1" style="stop-color:#24303C"/>
		</linearGradient>
		<polygon style="fill:url(#SVGID_00000090269433590244539520000000579897013198999429_);" points="19.4,27.5 19.4,34.3 35.1,43.6 
			50.7,34.3 50.7,27.5 35.5,18.5 29.9,21.9 45.2,31.3 35.1,37.2 		"/>
	</g>
	<g class="st1">
		<g>
			<path class="st4" d="M63.9,17c1.4,0,2.7,0.1,3.9,0.4l-0.1,1.2c-1.2-0.1-2.5-0.1-3.8-0.1c-0.5,0-0.8,0-1,0c-0.2,0-0.5,0-0.7,0.1
				c-0.3,0.1-0.4,0.2-0.5,0.3c-0.1,0.1-0.2,0.3-0.3,0.6s-0.1,0.6-0.1,1c0,0.7,0.1,1.2,0.4,1.5s0.7,0.5,1.3,0.7l2.7,0.7
				c1,0.2,1.7,0.7,2.1,1.3s0.6,1.4,0.6,2.5c0,1.5-0.3,2.4-1,2.9c-0.7,0.5-1.8,0.7-3.5,0.7c-1.4,0-2.8-0.1-4.1-0.4l0.1-1.2
				c1.9,0.1,3.2,0.1,4.1,0.1c1.1,0,1.8-0.1,2.1-0.4s0.5-0.8,0.5-1.7c0-0.7-0.1-1.2-0.4-1.5c-0.2-0.3-0.7-0.5-1.3-0.6l-2.8-0.7
				c-1-0.2-1.6-0.6-2-1.2s-0.6-1.4-0.6-2.5c0-0.8,0.1-1.4,0.2-1.9c0.2-0.5,0.4-0.8,0.8-1.1c0.4-0.2,0.8-0.4,1.3-0.5
				C62.4,17.1,63.1,17,63.9,17z"/>
			<path class="st4" d="M73.2,21.2h3v1.3h-3V28c0,0.5,0.1,0.8,0.3,1c0.2,0.2,0.5,0.3,1,0.3h1.4l0.2,1.2c-0.6,0.2-1.3,0.2-2.1,0.2
				c-0.8,0-1.4-0.2-1.8-0.6c-0.4-0.4-0.6-1.1-0.6-1.9v-5.7h-1.7v-1.2l1.7-0.1v-2.8h1.6L73.2,21.2L73.2,21.2z"/>
			<path class="st4" d="M82.1,21c1.6,0,2.8,0.4,3.4,1.1c0.7,0.8,1,2,1,3.8c0,1.8-0.3,3.1-1,3.8s-1.8,1.1-3.4,1.1s-2.7-0.4-3.4-1.1
				c-0.7-0.8-1-2-1-3.8c0-1.8,0.3-3,1-3.8C79.4,21.3,80.5,21,82.1,21z M82.1,22.4c-1,0-1.7,0.2-2.1,0.8s-0.6,1.4-0.6,2.8
				s0.2,2.3,0.6,2.8s1.1,0.8,2.1,0.8c1,0,1.7-0.2,2.1-0.8s0.6-1.4,0.6-2.8s-0.2-2.3-0.6-2.8C83.9,22.6,83.2,22.4,82.1,22.4z"/>
			<path class="st4" d="M93.1,21c1.2,0,2.2,0.1,3,0.4l-0.2,1.1c-0.8-0.1-1.7-0.1-2.5-0.1c-1.1,0-1.9,0.2-2.3,0.7
				c-0.4,0.5-0.7,1.4-0.7,2.8s0.2,2.3,0.7,2.8c0.4,0.5,1.2,0.8,2.3,0.8c1,0,2-0.1,2.8-0.2l0.2,1.1c-0.9,0.3-2,0.5-3.2,0.5
				c-1.6,0-2.8-0.4-3.4-1.1s-1-2-1-3.8c0-1.8,0.3-3.1,1-3.8C90.3,21.3,91.5,21,93.1,21z"/>
			<path class="st4" d="M100.2,17.1v6c0,0.6,0,1.2-0.1,1.6h1.2l3-3.5h1.9l-2.9,3.4c-0.2,0.3-0.5,0.5-0.7,0.6v0
				c0.2,0.2,0.4,0.4,0.7,0.7l3.2,4.5h-1.9l-3.3-4.7h-1.3c0.1,0.6,0.1,1.1,0.1,1.5v3.2h-1.6V17.1H100.2z"/>
		</g>
		<g>
			<path class="st5" d="M112.8,16.8c2,0,3.6,0.8,4.1,1.9c0.2,0.6,0.4,1.2,0.4,1.8c0,1.5-0.8,2.4-1.7,2.9c1.6,0.5,2.4,1.9,2.4,3.3
				c0,1.6-0.8,3-2.4,3.6c-0.6,0.2-1.3,0.3-2,0.3h-5.9V16.8H112.8z M111.1,22.3h1.2c0.8,0,1.2-0.2,1.4-0.5c0.2-0.3,0.3-0.6,0.3-0.8
				c0-0.5-0.3-0.9-0.8-1.2c-0.2-0.1-0.7-0.1-1-0.1H111C111,19.7,111,22.3,111.1,22.3z M111.1,27.6h1.7c1.1,0,1.8-0.4,1.8-1.3
				c0-0.5-0.2-0.9-0.6-1.2c-0.3-0.1-0.7-0.2-1.2-0.2H111L111.1,27.6L111.1,27.6z"/>
			<path class="st5" d="M125.6,30.6l-0.2-0.8c-0.7,0.6-1.6,1.1-2.8,1.1c-2.2,0-3.6-1.4-3.6-3.9v-6.4h3.5v6c0,1.1,0.3,1.6,1.2,1.6
				c0.7,0,1.2-0.3,1.5-0.6v-7h3.4v10.1L125.6,30.6L125.6,30.6z"/>
			<path class="st5" d="M133.5,21.5c0.5-0.6,1.2-1.2,2.4-1.2c0.5,0,1,0.1,1.3,0.2l-0.4,2.8c-0.4-0.1-0.8-0.2-1.1-0.2
				c-0.8,0-1.6,0.6-2,1.1v6.3h-3.4V20.4h3L133.5,21.5z"/>
			<path class="st5" d="M146.4,29.4c-0.4,0.5-1.2,0.8-1.9,1s-1.6,0.4-2.1,0.3c-1.4,0-2.7-0.4-3.6-1.3c-0.9-0.9-1.4-2.2-1.4-4
				c0-2.4,1.1-4.2,2.7-4.8c0.7-0.3,1.4-0.5,2.2-0.5c2.9,0,4.6,1.9,4.7,6h-6.2c0.1,1.2,0.8,1.9,2.2,1.9c1.2,0,1.8-0.5,2.6-1.1
				L146.4,29.4z M143.6,24.3c-0.1-1-0.6-1.8-1.4-1.8c-0.8,0-1.4,0.7-1.5,1.8H143.6z"/>
			<path class="st5" d="M148.3,21.3c0.3-0.2,0.7-0.4,1.2-0.6c1.2-0.4,2-0.5,2.6-0.5c2.5,0,4.1,1.2,4.1,3.9v6.4h-2.9l-0.3-0.8
				c-0.6,0.5-1.4,0.9-2.6,0.9c-0.9,0-1.6-0.3-2.2-0.8c-0.6-0.5-0.9-1.2-0.9-2.2c0-1.1,0.5-1.8,1.2-2.4c0.6-0.5,1.5-0.8,2.2-0.8
				c0.4-0.1,1.1-0.2,2.2-0.2v-0.4c0-0.8-0.4-1.1-1.2-1.1c-0.8,0-1.6,0.3-2.3,0.7L148.3,21.3z M152.9,26c-0.4,0.1-0.6,0.1-0.8,0.1
				c-0.2,0-0.3,0-0.4,0.1c-0.8,0.2-1.1,0.6-1.1,1.2c0,0.5,0.4,0.9,1.1,0.9c0.5,0,0.9-0.2,1.2-0.4L152.9,26L152.9,26z"/>
			<path class="st5" d="M164.4,30.6l-0.2-0.8c-0.6,0.6-1.6,1.1-2.8,1.1c-2.2,0-3.6-1.4-3.6-3.9v-6.4h3.5v6c0,1.1,0.3,1.6,1.2,1.6
				c0.7,0,1.2-0.3,1.5-0.6v-7h3.4v10.1L164.4,30.6L164.4,30.6z"/>
		</g>
		<g>
			
				<linearGradient id="SVGID_00000016065483830518211930000000166959446978387852_" gradientUnits="userSpaceOnUse" x1="165.6214" y1="34.6637" x2="181.4892" y2="22.4093" gradientTransform="matrix(1 0 0 -1 0 52)">
				<stop  offset="4.262232e-07" style="stop-color:#009EED"/>
				<stop  offset="1" style="stop-color:#003CC7"/>
			</linearGradient>
			<path style="fill:url(#SVGID_00000016065483830518211930000000166959446978387852_);" d="M180.6,30.6h-3.6l-2.1-3.7l-2.1,3.7
				h-3.6l3.9-6.4l-3.7-6h3.6l1.9,3.3l1.9-3.3h3.5l-3.6,5.9L180.6,30.6z"/>
		</g>
	</g>
</g>
<g>
	<g>
		<g>
			<path class="st7" d="M114.6,17.8c2.1,0.2,3.8,1.4,4,3.6c0.1,0.9-0.2,2.3-0.8,3c-0.2,0.2-0.9,0.4-0.8,0.7c0,0.1,0.8,0.4,1,0.7
				c1.4,1.8,1,5.4-1.1,6.5c-0.1,0.1-1,0.4-1.1,0.4H108V18c0,0,0.2-0.2,0.2-0.2C110.2,17.8,112.7,17.6,114.6,17.8z M111.1,23.8h3.5
				c0.2,0,0.8-0.6,0.9-0.8c0.4-0.9,0-2.5-1.2-2.5h-3.2V23.8z M111.1,30.3h3.4c0.1,0,0.8-0.3,0.9-0.5c0.5-0.5,0.5-1.9,0.3-2.5
				c-0.1-0.3-0.8-1-1.1-1h-3.5V30.3z"/>
			<path class="st7" d="M159.2,32.8h-2.5c-0.1,0-0.2-0.9-0.5-1c-1.9,1.8-6,1.7-6.3-1.4c-0.2-1.6,0-3.3,1.6-4.1c0.1-0.1,1-0.3,1-0.3
				h3.8c0-0.6,0.1-1.6-0.7-1.8c-1.6-0.3-3.8,0.2-5.4,0.1c0.1-0.6-0.3-1.6,0.3-2c1.3-0.7,6.2-0.9,7.4,0c0.7,0.4,1.4,1.6,1.4,2.4V32.8
				z M156.2,27.9c-1,0.3-3.2-0.3-3.4,1c-0.2,1.1,0,1.8,1.3,1.7c0.3,0,2.1-0.6,2.1-0.8C156.3,29.6,156.1,28.3,156.2,27.9z"/>
			<path class="st7" d="M142.2,28.7c0.2,0.6,0.1,1.2,0.7,1.6c0.9,0.7,4.4,0.2,5.6,0v2.2c-2,0.4-4.2,0.6-6.2,0.4
				c-0.9-0.1-1.7-0.4-2.2-1.2c-1.1-1.8-1.2-7,0.1-8.7c1.2-1.6,6.6-1.6,7.8-0.1c0.9,1.1,1.1,4.1-0.1,5.1c-0.2,0.2-1.2,0.6-1.5,0.6
				H142.2z M142.2,26.4h3.2c0.4,0,0.8-2-0.5-2.2C142.9,23.9,142.2,24.4,142.2,26.4z"/>
			<path class="st7" d="M122.9,22v7.8c0,1.6,3.7,0.6,3.7-0.1V22h3v10.9h-2.5c-0.1,0-0.2-0.9-0.5-1c-1.5,1.4-4.6,2.1-6,0.1
				c-0.2-0.2-0.7-1.3-0.7-1.6V22H122.9z"/>
			<path class="st7" d="M163.5,22v7.8c0,0,0.3,0.6,0.4,0.7c0.7,0.4,3.3-0.2,3.3-0.8V22h3v10.9h-2.5c-0.1,0-0.2-0.9-0.5-1
				c-1.5,1.4-4.6,2-6,0.1c-0.2-0.3-0.7-1.5-0.7-1.7V22H163.5z"/>
			<path class="st7" d="M175,22l1.9,3.1c0.3-0.4,1.8-3.1,2.1-3.1h3.5l-3.7,5.6l3.4,5.3h-3.4l-1.9-3l-1.9,3h-3.5l3.6-5.4l-3.6-5.4
				H175z"/>
			<path class="st7" d="M138.6,22v2.8h-2.5c-0.4,0-1.9,0.8-1.9,1.3v6.8h-3V22h2.5c0.2,0,0.4,1.2,0.6,1.2
				C135.5,22.1,137,21.5,138.6,22z"/>
		</g>
	</g>
	<g>
		
			<radialGradient id="SVGID_00000086683504522683496960000010469353966283275961_" cx="49.0813" cy="12.0232" r="29.4228" gradientUnits="userSpaceOnUse">
			<stop  offset="0" style="stop-color:#31B9F7"/>
			<stop  offset="1" style="stop-color:#17A6E8"/>
		</radialGradient>
		<polygon style="fill:url(#SVGID_00000086683504522683496960000010469353966283275961_);" points="48.8,24.4 33,15 22.9,21 
			32.3,26.4 34.5,25.2 41.2,29.5 33.4,33.9 17.6,24.4 17.6,17.4 32.7,8.2 48.8,17.5 		"/>
		
			<radialGradient id="SVGID_00000052074345061454347860000003566253308261676975_" cx="42.0869" cy="20.0278" r="28.1466" gradientUnits="userSpaceOnUse">
			<stop  offset="0" style="stop-color:#BFD9F0"/>
			<stop  offset="1" style="stop-color:#6896AD"/>
		</radialGradient>
		<polygon style="fill:url(#SVGID_00000052074345061454347860000003566253308261676975_);" points="17.6,25.6 33.3,35 43.4,29 
			34,23.6 31.8,24.8 25.1,20.5 32.9,16.1 48.8,25.6 48.8,32.6 33.6,41.8 17.6,32.5 		"/>
		
			<radialGradient id="SVGID_00000053532553265682791670000007971663922166308767_" cx="32.265" cy="10.538" r="13.8278" gradientUnits="userSpaceOnUse">
			<stop  offset="0" style="stop-color:#CEF0FE"/>
			<stop  offset="1" style="stop-color:#D4F4FF;stop-opacity:0.4"/>
		</radialGradient>
		<polygon style="opacity:0.49;fill:url(#SVGID_00000053532553265682791670000007971663922166308767_);" points="47.5,17.6 
			32.7,9.1 19.8,16.8 25.8,18.1 33.2,13.6 47.5,22.3 		"/>
	</g>
	<g>
		<g>
			<path class="st11" d="M64.3,18.3c0.1,0.1,0,1.1,0,1.3c-0.8,0.1-1.7-0.1-2.5-0.2c-1,0-3.3-0.2-4.2,0c-1.3,0.3-1.1,3-1,4
				c0.1,0.6,0.5,1.1,1.1,1.1c2.5,0.3,6.6-1,6.9,2.7c0.2,1.7,0.3,4.3-1.5,5.2c-1.5,0.7-4.4,0.4-6,0.2c-1.4-0.2-2,0.1-1.7-1.6
				c1.9,0,4.3,0.4,6.2,0.1c0.6-0.1,1.4-0.6,1.4-1.2c0.1-0.8,0.1-3-0.5-3.5c-1.6-1-5.5,0.7-7-1.4c-0.7-0.9-0.6-3.4-0.5-4.5
				c0.2-1.7,1.2-2.7,2.9-2.9C58.7,17.7,64.1,18,64.3,18.3z"/>
			<path class="st11" d="M97.3,16.9v8.9l0.8-0.1c0.5-0.4,3.7-3.7,4-3.7h2.2l-4.7,4.7l4.7,6.2l-2.1-0.1l-4.1-5.1l-0.8-0.1v5.4h-1.6
				V16.9H97.3z"/>
			<path class="st11" d="M77.7,21.9c1.4-0.1,3.6,0,4.7,1.1c1.5,1.5,1.5,6.9,0.3,8.6c-0.7,0.9-1.8,1.3-2.9,1.4
				c-5.3,0.5-6.2-2.1-5.9-6.8C74,23.6,75,22.2,77.7,21.9z M76.3,30.8c0.8,0.7,3.5,0.7,4.4,0.2c1.5-0.7,1.3-4.4,1-5.8
				c-0.2-0.8-0.5-1.4-1.4-1.6c-1.1-0.3-3.6-0.4-4.3,0.7C75.3,25.5,75.2,29.9,76.3,30.8z"/>
			<path class="st11" d="M93.5,22.4c0.1,0.2,0,0.9,0,1.2c-0.2,0.2-4.1-0.2-4.8-0.2c-1,0.1-1.3,0.4-1.6,1.4c-0.4,1.2-0.5,5.5,0.7,6.3
				c1.1,0.7,5.7-0.2,6,0.1c-0.1,0.3,0.1,1,0,1.2c-0.3,0.5-5,0.7-5.7,0.6c-3.3-0.5-3.1-6.5-2.4-8.9c0.5-1.4,1.3-2.1,2.8-2.3
				C89,21.8,93.4,22.2,93.5,22.4z"/>
			<path class="st11" d="M69.2,19v3h3.1c0,0.3,0.1,1.6-0.2,1.6h-2.9v6.6c0,0.1,0.4,0.7,0.5,0.8c0.9,0.7,2.9,0,2.4,1.8h-2.8
				c-0.4,0-1.3-0.9-1.5-1.3c-0.2-0.5-0.5-1.7-0.5-2.2v-5.7l-1.9,0c0-0.3-0.1-1.3,0-1.3c0.1-0.1,1.8-0.2,2.1-0.3c0-0.4,0.2-2.8,0.3-3
				C68,18.9,69,19,69.2,19z"/>
		</g>
	</g>
</g>
</svg>
